# xmcd CD database file
#
# Track frame offsets:
#	150
#	16841
#	39350
#	53799
#	66592
#	81812
#	97966
#	111539
#	132261
#	149593
#	166114
#
# Disc length: 2567 seconds
#
# Revision: 0
# Processed by: cddbd v1.4PL0 Copyright (c) Steve Scherf et al.
# Submitted via: CDex 1.40Release
#
DISCID=940a050b
DTITLE=Bill Perry - Crazy Kind Of Life
DYEAR=2002
DGENRE=Blues
TTITLE0=500 Miles
TTITLE1=Crazy Kind Of Life
TTITLE2=Too Hot
TTITLE3=Trouble In The Shotgun
TTITLE4=Honey Pie
TTITLE5=Take You Down
TTITLE6=Junkie
TTITLE7=Can't Buy My Love
TTITLE8=Morning Spiritual
TTITLE9=Girl's Gone Crazy
TTITLE10=No Expectations
EXTD=YEAR: 2002 ID3G: 0
EXTT0=
EXTT1=
EXTT2=
EXTT3=
EXTT4=
EXTT5=
EXTT6=
EXTT7=
EXTT8=
EXTT9=
EXTT10=
PLAYORDER=
